<svg width="60" height="74" viewBox="0 0 60 74" fill="none" xmlns="http://www.w3.org/2000/svg">
<path d="M25.1467 65.1335C15.9798 65.1335 8.52246 57.6762 8.52246 48.5093C8.52246 42.8776 11.4225 37.599 16.1428 34.5451L14.4548 25.7559C5.62858 29.9033 0 38.6872 0 48.5085C0 62.3734 11.281 73.6551 25.1467 73.6551C31.9366 73.6551 38.4788 70.8682 43.2083 65.984L39.5716 56.7648C36.6392 61.8612 31.1383 65.1335 25.1467 65.1335Z" fill="#F3EFE6"/>
<path d="M59.6742 67.2716L48.1617 38.0783C47.6495 35.9904 45.79 34.5292 43.6398 34.5261L31.2521 34.51L30.3862 30.0019H43.7359C46.3114 30.0019 48.4055 27.9078 48.4055 25.3346C48.4055 22.7599 46.3099 20.6658 43.7359 20.6658H28.592L27.8214 16.653L28.239 16.2216C29.8909 14.5159 30.8007 12.2741 30.8007 9.91012C30.8007 4.90525 26.7294 0.833984 21.7237 0.833984C16.7189 0.833984 12.6483 4.90525 12.6483 9.91012C12.6483 13.5207 14.7901 16.7876 18.1054 18.2318L18.663 18.4741L22.8096 40.0563C22.8258 40.1316 22.8412 40.1901 22.8573 40.25L22.9927 40.7161C23.0165 40.783 23.0411 40.8545 23.0688 40.923L23.1365 41.0775C23.1788 41.1706 23.2164 41.2521 23.2572 41.3305L23.3333 41.4682C23.3795 41.5489 23.4295 41.6335 23.4818 41.7135L23.5602 41.8312C23.6171 41.9127 23.6786 41.995 23.7425 42.0742L23.8132 42.1634C23.8847 42.248 23.9593 42.3295 24.0355 42.4087L24.0947 42.4702C24.197 42.5741 24.2893 42.6564 24.3838 42.7363L24.4538 42.7986C24.5353 42.8648 24.6492 42.9494 24.7661 43.0301L24.8822 43.1032C24.9552 43.1501 25.0368 43.2024 25.1237 43.2493L25.2244 43.3008C25.3559 43.3669 25.4328 43.4069 25.512 43.4423L25.6512 43.4992C25.7581 43.5415 25.8373 43.5715 25.9188 43.5984L26.078 43.6476C26.1726 43.6761 26.2672 43.6984 26.3626 43.7215L26.5048 43.753C26.6148 43.7738 26.7309 43.7915 26.8478 43.8038L26.9386 43.8176C27.0678 43.8307 27.2085 43.8399 27.3508 43.8414L27.4169 43.8399L40.399 43.856L50.9894 70.6953C51.6985 72.4903 53.4042 73.6515 55.3337 73.6515C55.9174 73.6515 56.4942 73.54 57.0471 73.3224C59.4396 72.3818 60.6186 69.6656 59.6742 67.2716Z" fill="#F3EFE6"/>
</svg>
