<svg width="60" height="64" viewBox="0 0 60 64" fill="none" xmlns="http://www.w3.org/2000/svg">
<path d="M48 24.5H33V15.5H27V24.5H12C8.8174 24.5 5.76516 25.7643 3.51472 28.0147C1.26428 30.2652 0 33.3174 0 36.5V63.5H60V36.5C60 33.3174 58.7357 30.2652 56.4853 28.0147C54.2348 25.7643 51.1826 24.5 48 24.5ZM54 57.5H6V48.5C7.54981 48.4404 9.07092 48.0636 10.4693 47.3928C11.8677 46.722 13.1136 45.7715 14.13 44.6C14.5498 43.9562 15.1235 43.4273 15.7993 43.0612C16.475 42.6951 17.2314 42.5034 18 42.5034C18.7686 42.5034 19.525 42.6951 20.2007 43.0612C20.8765 43.4273 21.4502 43.9562 21.87 44.6C22.8516 45.8097 24.0909 46.7851 25.4974 47.4551C26.9038 48.1251 28.4421 48.4727 30 48.4727C31.5579 48.4727 33.0962 48.1251 34.5026 47.4551C35.9091 46.7851 37.1484 45.8097 38.13 44.6C38.5498 43.9562 39.1235 43.4273 39.7993 43.0612C40.475 42.6951 41.2314 42.5034 42 42.5034C42.7686 42.5034 43.525 42.6951 44.2007 43.0612C44.8765 43.4273 45.4502 43.9562 45.87 44.6C46.8864 45.7715 48.1323 46.722 49.5307 47.3928C50.9291 48.0636 52.4502 48.4404 54 48.5V57.5ZM54 42.5C52.4905 42.3157 51.1073 41.5651 50.13 40.4C49.1483 39.1903 47.9091 38.2149 46.5026 37.5449C45.0962 36.8749 43.5579 36.5273 42 36.5273C40.4421 36.5273 38.9038 36.8749 37.4974 37.5449C36.0909 38.2149 34.8516 39.1903 33.87 40.4C33.4502 41.0438 32.8765 41.5727 32.2007 41.9388C31.525 42.3049 30.7686 42.4966 30 42.4966C29.2314 42.4966 28.475 42.3049 27.7993 41.9388C27.1235 41.5727 26.5498 41.0438 26.13 40.4C25.1484 39.1903 23.9091 38.2149 22.5026 37.5449C21.0962 36.8749 19.5579 36.5273 18 36.5273C16.4421 36.5273 14.9038 36.8749 13.4974 37.5449C12.0909 38.2149 10.8516 39.1903 9.87 40.4C8.89274 41.5651 7.50951 42.3157 6 42.5V36.5C6 34.9087 6.63214 33.3826 7.75736 32.2574C8.88258 31.1321 10.4087 30.5 12 30.5H48C49.5913 30.5 51.1174 31.1321 52.2426 32.2574C53.3679 33.3826 54 34.9087 54 36.5V42.5ZM30 13.07C31.2333 13.07 32.416 12.5801 33.288 11.708C34.1601 10.836 34.65 9.65326 34.65 8.42C34.65 4.7 30 0.5 30 0.5C30 0.5 25.35 4.7 25.35 8.42C25.35 9.65326 25.8399 10.836 26.712 11.708C27.584 12.5801 28.7667 13.07 30 13.07Z" fill="#D4D1C5"/>
<path d="M48 24.5H33V15.5H27V24.5H12C8.8174 24.5 5.76516 25.7643 3.51472 28.0147C1.26428 30.2652 0 33.3174 0 36.5V63.5H60V36.5C60 33.3174 58.7357 30.2652 56.4853 28.0147C54.2348 25.7643 51.1826 24.5 48 24.5ZM54 57.5H6V48.5C7.54981 48.4404 9.07092 48.0636 10.4693 47.3928C11.8677 46.722 13.1136 45.7715 14.13 44.6C14.5498 43.9562 15.1235 43.4273 15.7993 43.0612C16.475 42.6951 17.2314 42.5034 18 42.5034C18.7686 42.5034 19.525 42.6951 20.2007 43.0612C20.8765 43.4273 21.4502 43.9562 21.87 44.6C22.8516 45.8097 24.0909 46.7851 25.4974 47.4551C26.9038 48.1251 28.4421 48.4727 30 48.4727C31.5579 48.4727 33.0962 48.1251 34.5026 47.4551C35.9091 46.7851 37.1484 45.8097 38.13 44.6C38.5498 43.9562 39.1235 43.4273 39.7993 43.0612C40.475 42.6951 41.2314 42.5034 42 42.5034C42.7686 42.5034 43.525 42.6951 44.2007 43.0612C44.8765 43.4273 45.4502 43.9562 45.87 44.6C46.8864 45.7715 48.1323 46.722 49.5307 47.3928C50.9291 48.0636 52.4502 48.4404 54 48.5V57.5ZM54 42.5C52.4905 42.3157 51.1073 41.5651 50.13 40.4C49.1483 39.1903 47.9091 38.2149 46.5026 37.5449C45.0962 36.8749 43.5579 36.5273 42 36.5273C40.4421 36.5273 38.9038 36.8749 37.4974 37.5449C36.0909 38.2149 34.8516 39.1903 33.87 40.4C33.4502 41.0438 32.8765 41.5727 32.2007 41.9388C31.525 42.3049 30.7686 42.4966 30 42.4966C29.2314 42.4966 28.475 42.3049 27.7993 41.9388C27.1235 41.5727 26.5498 41.0438 26.13 40.4C25.1484 39.1903 23.9091 38.2149 22.5026 37.5449C21.0962 36.8749 19.5579 36.5273 18 36.5273C16.4421 36.5273 14.9038 36.8749 13.4974 37.5449C12.0909 38.2149 10.8516 39.1903 9.87 40.4C8.89274 41.5651 7.50951 42.3157 6 42.5V36.5C6 34.9087 6.63214 33.3826 7.75736 32.2574C8.88258 31.1321 10.4087 30.5 12 30.5H48C49.5913 30.5 51.1174 31.1321 52.2426 32.2574C53.3679 33.3826 54 34.9087 54 36.5V42.5ZM30 13.07C31.2333 13.07 32.416 12.5801 33.288 11.708C34.1601 10.836 34.65 9.65326 34.65 8.42C34.65 4.7 30 0.5 30 0.5C30 0.5 25.35 4.7 25.35 8.42C25.35 9.65326 25.8399 10.836 26.712 11.708C27.584 12.5801 28.7667 13.07 30 13.07Z" fill="black" fill-opacity="0.2"/>
</svg>
