<svg width="80" height="81" viewBox="0 0 80 81" fill="none" xmlns="http://www.w3.org/2000/svg">
<path d="M40 43.103C41.578 43.103 42.8571 41.8238 42.8571 40.2458C42.8571 38.6679 41.578 37.3887 40 37.3887C38.422 37.3887 37.1429 38.6679 37.1429 40.2458C37.1429 41.8238 38.422 43.103 40 43.103Z" fill="#F3EFE6"/>
<path d="M40 0.244141C18 0.244141 0 18.2441 0 40.2441C0 62.2441 18 80.2441 40 80.2441C62 80.2441 80 62.2441 80 40.2441C80 18.2441 62 0.244141 40 0.244141ZM11.4286 43.1013C9.71429 43.1013 8.57143 41.9584 8.57143 40.2441C8.57143 22.8156 22.5714 8.81557 40 8.81557C41.7143 8.81557 42.8571 9.95843 42.8571 11.6727C42.8571 13.387 41.7143 14.5299 40 14.5299C25.7143 14.5299 14.2857 25.9584 14.2857 40.2441C14.2857 41.9584 13.1429 43.1013 11.4286 43.1013ZM20 43.1013C18.2857 43.1013 17.1429 41.9584 17.1429 40.2441C17.1429 27.6727 27.4286 17.387 40 17.387C41.7143 17.387 42.8571 18.5299 42.8571 20.2441C42.8571 21.9584 41.7143 23.1013 40 23.1013C30.5714 23.1013 22.8571 30.8156 22.8571 40.2441C22.8571 41.9584 21.7143 43.1013 20 43.1013ZM40 54.5299C32 54.5299 25.7143 48.2441 25.7143 40.2441C25.7143 32.2441 32 25.9584 40 25.9584C48 25.9584 54.2857 32.2441 54.2857 40.2441C54.2857 48.2441 48 54.5299 40 54.5299Z" fill="#F3EFE6"/>
</svg>
