<svg width="45" height="46" viewBox="0 0 45 46" fill="none" xmlns="http://www.w3.org/2000/svg">
<path d="M38.3421 39.1008H31.6745V28.6588C31.6745 26.1687 31.6301 22.9633 28.2067 22.9633C24.734 22.9633 24.2027 25.6763 24.2027 28.4775V39.1002H17.5351V17.627H23.9359V20.5615H24.0256C24.6661 19.4662 25.5918 18.5652 26.7039 17.9544C27.8161 17.3435 29.0731 17.0458 30.341 17.0929C37.0989 17.0929 38.3449 21.5381 38.3449 27.321L38.3421 39.1008ZM10.0118 14.6918C9.24653 14.6919 8.49838 14.4651 7.862 14.04C7.22562 13.615 6.72962 13.0107 6.43663 12.3037C6.14365 11.5968 6.06686 10.8188 6.21603 10.0681C6.36519 9.31752 6.73359 8.62799 7.27463 8.08674C7.81566 7.5455 8.50504 7.17684 9.25558 7.02741C10.0061 6.87797 10.7841 6.95446 11.4912 7.2472C12.1982 7.53994 12.8026 8.03578 13.2279 8.67203C13.6532 9.30827 13.8803 10.0563 13.8804 10.8216C13.8805 11.3298 13.7805 11.833 13.5861 12.3025C13.3918 12.772 13.1068 13.1986 12.7476 13.5579C12.3884 13.9173 11.9619 14.2024 11.4924 14.3969C11.023 14.5915 10.5199 14.6917 10.0118 14.6918ZM13.3456 39.1008H6.67106V17.627H13.3456V39.1008ZM41.6662 0.760878H3.32061C2.45027 0.751056 1.6116 1.08718 0.98895 1.69539C0.366304 2.3036 0.010622 3.13414 0 4.00449V42.5105C0.0102584 43.3813 0.365732 44.2124 0.988356 44.8212C1.61098 45.43 2.44984 45.7668 3.32061 45.7576H41.6662C42.5387 45.7685 43.3799 45.4327 44.005 44.8238C44.6301 44.215 44.9879 43.383 45 42.5105V4.00172C44.9876 3.12963 44.6295 2.29815 44.0044 1.68996C43.3792 1.08176 42.5383 0.746597 41.6662 0.758099" fill="white"/>
</svg>
