<svg width="60" height="52" viewBox="0 0 60 52" fill="none" xmlns="http://www.w3.org/2000/svg">
<path d="M57.7717 8.6787C53.1821 0.724483 42.9716 -2.00675 35.0233 2.58291L0.000244141 22.8019L16.6528 51.6461L51.6759 31.4251C59.6301 26.8354 62.3634 16.6309 57.7717 8.6787ZM50.4884 29.3628L17.5256 48.3963L3.25199 23.6747L36.2128 4.64321C43.029 0.70865 51.7769 3.05197 55.7134 9.86817C59.646 16.6844 57.3027 25.4303 50.4884 29.3628Z" fill="#F3EFE6"/>
<path d="M37.4023 6.70256L6.49979 24.5446L18.3965 45.1456L49.297 27.3036C54.9871 24.0182 56.9345 16.7448 53.6511 11.0567C50.3657 5.36663 43.0904 3.41915 37.4023 6.70256ZM25.7055 32.7383L22.0718 30.5533C21.0604 29.9477 19.9006 29.1917 18.9289 28.4515L18.8992 28.4871C19.584 29.5578 20.2826 30.7176 21.0683 32.0753L22.5171 34.5849L20.7853 35.5824L15.9799 27.2561L18.1768 25.9835L21.668 28.0378C22.6695 28.6316 23.7639 29.3836 24.6763 30.106L24.7139 30.0843C23.9559 29.0551 23.2711 27.9547 22.5507 26.7059L21.1455 24.2735L22.8733 23.27L27.6827 31.5983L25.7055 32.7383ZM29.3155 30.6582L24.5081 22.33L29.648 19.3632L30.5386 20.9069L27.2908 22.7812L28.2863 24.511L31.352 22.7416L32.2367 24.2715L29.171 26.0428L30.313 28.02L33.7349 26.0428L34.6255 27.5846L29.3155 30.6582ZM41.8099 23.4422L39.039 20.2677C38.3978 19.5196 37.81 18.8229 37.1628 17.9244L37.1371 17.9382C37.5309 18.9654 37.8496 19.8342 38.1385 20.7862L39.4171 24.8257L37.3568 26.0191L30.5702 18.8348L32.583 17.671L35.1975 20.7407C35.9535 21.6234 36.7452 22.6011 37.3706 23.3591L37.3944 23.3453C37.0124 22.3656 36.6284 21.2493 36.2465 20.1034L34.9818 16.2856L36.9847 15.1298L39.6783 18.2549C40.4244 19.1217 41.0736 19.9352 41.7346 20.7882L41.7584 20.7724C41.3448 19.7729 40.9707 18.6903 40.5709 17.6037L39.2805 13.8018L41.2003 12.6935L43.8563 22.2646L41.8099 23.4422ZM50.0906 16.0877C48.8576 16.8022 47.2802 16.3786 46.5717 15.1436C45.8632 13.9126 46.2827 12.3352 47.5177 11.6247C48.7468 10.9162 50.3242 11.3358 51.0347 12.5668C51.7452 13.8018 51.3236 15.3792 50.0906 16.0877Z" fill="#F3EFE6"/>
</svg>
