<svg width="60" height="61" viewBox="0 0 60 61" fill="none" xmlns="http://www.w3.org/2000/svg">
<path fill-rule="evenodd" clip-rule="evenodd" d="M51.8253 0.246499H8.29924C6.16686 0.195088 4.10008 0.985935 2.54666 2.44771C0.993243 3.90949 0.0782832 5.92447 0 8.05613V52.4341C0.0704155 54.5437 0.963575 56.542 2.48841 58.0015C4.01325 59.461 6.04867 60.2658 8.15926 60.2437H19.1583C20.2582 55.7039 25.6177 53.074 31.2971 50.7541C35.5368 48.9542 36.1867 47.4143 36.1867 45.6144C36.1867 43.8145 34.8968 42.1445 33.487 40.8546C32.2098 39.7401 31.1998 38.3525 30.5316 36.7947C29.8635 35.2368 29.5544 33.5486 29.6273 31.855C29.6273 25.1653 33.9969 19.2556 41.6262 19.2556C49.2555 19.2556 53.6251 25.0453 53.6251 31.855C53.6426 33.541 53.3084 35.2121 52.6438 36.7616C51.9792 38.3112 50.9989 39.7052 49.7655 40.8546C48.3556 42.2645 47.0657 43.8545 47.0657 45.6144C47.0657 47.3743 47.5757 48.9542 51.9553 50.7541C54.6782 51.7812 57.2856 53.0917 59.7346 54.664C59.936 53.9386 60.0237 53.1863 59.9945 52.4341V8.05613C60.1345 3.80633 56.4149 0.246499 51.8253 0.246499ZM27.6075 13.5959C27.5825 14.3189 27.2834 15.0054 26.7709 15.5161C26.2584 16.0267 25.5709 16.3233 24.8477 16.3457H10.779C10.0524 16.3283 9.3599 16.0339 8.84318 15.5228C8.32645 15.0116 8.02457 14.3223 7.99927 13.5959V10.846C8.02431 10.1229 8.3234 9.43647 8.83589 8.92582C9.34839 8.41516 10.0359 8.11855 10.759 8.09613H24.8477C25.5709 8.11855 26.2584 8.41516 26.7709 8.92582C27.2834 9.43647 27.5825 10.1229 27.6075 10.846V13.5959Z" fill="#F3EFE6"/>
</svg>
