<svg width="50" height="50" viewBox="0 0 50 50" fill="none" xmlns="http://www.w3.org/2000/svg">
<g clip-path="url(#clip0_15_131)">
<path d="M49.9163 18.9664C49.7303 18.4109 49.2491 18.0063 48.6702 17.9172L33.2999 15.5687L26.4132 0.898438C26.1553 0.35 25.6038 0 24.9983 0C24.3928 0 23.8421 0.35 23.5835 0.898438L16.6967 15.5687L1.32643 17.918C0.747527 18.0063 0.267058 18.4117 0.0803397 18.9672C-0.105598 19.5219 0.0342459 20.1344 0.443621 20.5539L11.6108 32.0047L8.97175 48.1797C8.87487 48.7703 9.12409 49.3648 9.61393 49.7086C9.88268 49.8984 10.1975 49.9945 10.5132 49.9945C10.7725 49.9945 11.0335 49.9289 11.2694 49.7992L24.9975 42.2063L38.7257 49.7992C38.9616 49.9289 39.2225 49.9945 39.4819 49.9945C39.7975 49.9945 40.1132 49.8984 40.3811 49.7086C40.871 49.3648 41.1202 48.7703 41.0233 48.1797L38.3842 32.0047L49.5514 20.5539C49.9616 20.1336 50.1022 19.5211 49.9163 18.9664Z" fill="#908DB8"/>
<path d="M49.9163 18.9664C49.7303 18.4109 49.2491 18.0063 48.6702 17.9172L33.2999 15.5687L26.4132 0.898438C26.1553 0.35 25.6038 0 24.9983 0C24.3928 0 23.8421 0.35 23.5835 0.898438L16.6967 15.5687L1.32643 17.918C0.747527 18.0063 0.267058 18.4117 0.0803397 18.9672C-0.105598 19.5219 0.0342459 20.1344 0.443621 20.5539L11.6108 32.0047L8.97175 48.1797C8.87487 48.7703 9.12409 49.3648 9.61393 49.7086C9.88268 49.8984 10.1975 49.9945 10.5132 49.9945C10.7725 49.9945 11.0335 49.9289 11.2694 49.7992L24.9975 42.2063L38.7257 49.7992C38.9616 49.9289 39.2225 49.9945 39.4819 49.9945C39.7975 49.9945 40.1132 49.8984 40.3811 49.7086C40.871 49.3648 41.1202 48.7703 41.0233 48.1797L38.3842 32.0047L49.5514 20.5539C49.9616 20.1336 50.1022 19.5211 49.9163 18.9664Z" fill="black" fill-opacity="0.2"/>
</g>
<defs>
<clipPath id="clip0_15_131">
<rect width="50" height="50" fill="white"/>
</clipPath>
</defs>
</svg>
