<svg width="60" height="56" viewBox="0 0 60 56" fill="none" xmlns="http://www.w3.org/2000/svg">
<path d="M46.2909 17.8574C50.6234 17.8574 54.1482 14.3326 54.1482 9.99997C54.1482 5.66736 50.6234 2.14258 46.2909 2.14258C41.9583 2.14258 38.4335 5.66736 38.4335 9.99997C38.4335 14.3325 41.9583 17.8574 46.2909 17.8574ZM46.2909 5.34132C48.8596 5.34132 50.9493 7.43116 50.9493 9.99985C50.9493 12.5685 48.8596 14.6584 46.2909 14.6584C43.7222 14.6584 41.6324 12.5685 41.6324 9.99985C41.6324 7.43116 43.7222 5.34132 46.2909 5.34132Z" fill="#F3EFE6"/>
<path d="M42.993 55.8112C45.0491 55.8112 46.7221 54.1384 46.7221 52.0823V41.1038H56.6715C56.6717 41.1038 56.6719 41.1038 56.6722 41.1038C57.5611 41.1038 58.3967 40.7577 59.0252 40.1291C59.6538 39.5005 60 38.6649 60 37.776V21.3616C59.9995 19.5268 58.5065 18.0342 56.6718 18.0341L39.5083 18.0338C39.5094 17.9765 39.5126 17.9197 39.5126 17.8622C39.5126 12.729 35.3365 8.55289 30.2033 8.55289C25.07 8.55289 20.8939 12.729 20.8939 17.8622C20.8939 18.4031 20.9428 18.9325 21.0318 19.4483H13.6094C17.435 19.1239 20.4496 15.9086 20.4496 12.0004C20.4496 9.35531 19.0678 7.02838 16.9893 5.69888C17.4058 5.15754 17.6435 4.52428 17.6435 3.84108C17.6435 1.79344 15.5167 0.189453 12.8016 0.189453C10.0866 0.189453 7.95975 1.79344 7.95975 3.84108C7.95975 4.58715 8.24322 5.2738 8.73351 5.84591C6.77949 7.1962 5.49576 9.45066 5.49576 12.0004C5.49576 15.9086 8.51033 19.1239 12.3359 19.4483H4.57708C2.8273 19.4483 1.39888 20.8499 1.35533 22.5893L0.00602045 37.9473C-0.0332272 38.394 0.116873 38.8369 0.419904 39.1676C0.722812 39.4983 1.15072 39.6867 1.5993 39.6867H13.6846L13.6847 52.0821C13.6847 54.1381 15.3575 55.8109 17.4137 55.8112H42.993ZM8.69721 12.1003L16.4556 9.52091C16.9555 10.221 17.2507 11.0767 17.2507 12.0004C17.2507 14.3593 15.3315 16.2785 12.9727 16.2785C10.6473 16.2785 8.75061 14.4132 8.69721 12.1003ZM43.2025 21.2328L44.5988 22.982L43.7452 28.2073C43.5021 28.1573 43.2505 28.1309 42.9929 28.1309L35.7806 28.1308L35.7805 25.3114C37.1606 24.2754 38.2424 22.8647 38.8786 21.2328H43.2025ZM25.2529 28.1308L24.944 25.5384C26.4414 26.5677 28.253 27.1716 30.2033 27.1716C31.0252 27.1716 31.8221 27.0635 32.5817 26.8626V28.1308H25.2529ZM30.2033 11.7517C33.5727 11.7517 36.3138 14.4929 36.3138 17.8622C36.3138 21.2316 33.5727 23.9728 30.2033 23.9728C26.8339 23.9728 24.0927 21.2316 24.0927 17.8622C24.0927 14.4929 26.834 11.7517 30.2033 11.7517ZM22.0314 28.1308L17.4137 28.1307C15.3579 28.1307 13.6849 29.8033 13.6845 31.8596V36.4877H3.34551L4.55321 22.671C4.55321 22.6578 4.56391 22.6471 4.57708 22.6471H21.3682C21.3815 22.6471 21.3923 22.658 21.3923 22.6716L22.0314 28.1308ZM43.5231 52.0824C43.5231 52.3746 43.2853 52.6125 42.9931 52.6125H17.4139C17.1214 52.6123 16.8835 52.3745 16.8835 52.0822L16.8832 31.8601C16.8834 31.5676 17.1213 31.3297 17.4136 31.3297L26.5771 31.3298L28.5084 33.7495L26.4066 46.2466C26.3271 46.7194 26.464 47.2029 26.7793 47.564L28.9986 50.1048C29.3023 50.4525 29.7414 50.652 30.2032 50.652C30.6648 50.652 31.104 50.4525 31.4077 50.1049L33.6269 47.5644C33.9424 47.2033 34.0793 46.7197 33.9997 46.247L31.898 33.7496L33.8295 31.3298L42.9925 31.3299C43.2849 31.3299 43.5229 31.5679 43.523 31.8602V52.0824H43.5231ZM56.801 37.776C56.801 37.7892 56.801 37.8294 56.7631 37.8673C56.7251 37.9052 56.6815 37.9074 56.6717 37.9051H46.722V36.8551C47.0119 36.7741 47.2828 36.6126 47.4955 36.369L49.2967 34.3069C49.612 33.9458 49.7489 33.4623 49.6694 32.9895L47.9859 22.9785L49.379 21.2329H56.6715C56.7428 21.2329 56.8009 21.2911 56.8009 21.3621V37.776H56.801Z" fill="#F3EFE6"/>
</svg>
