<svg width="45" height="51" viewBox="0 0 45 51" fill="none" xmlns="http://www.w3.org/2000/svg">
<path d="M38.2785 10.2225C35.4983 8.43156 33.4934 5.56475 32.8669 2.22462C32.7323 1.50312 32.6573 0.759877 32.6573 0H23.7859L23.7717 35.1385C23.6228 39.0735 20.3456 42.232 16.3293 42.232C15.0802 42.232 13.905 41.9237 12.8695 41.3851C10.4957 40.1507 8.87134 37.6919 8.87134 34.8622C8.87134 30.798 12.2172 27.4912 16.328 27.4912C17.0955 27.4912 17.832 27.6165 18.5283 27.8314V18.8805C17.8074 18.7833 17.0748 18.7232 16.328 18.7232C7.32462 18.7232 0 25.9625 0 34.8622C0 40.3221 2.75951 45.1538 6.97127 48.0756C9.62335 49.9165 12.8501 51 16.3293 51C25.3326 51 32.6573 43.7607 32.6573 34.8622V17.0435C36.1364 19.5112 40.3999 20.9657 45 20.9657V12.1977C42.5227 12.1977 40.2149 11.4698 38.2785 10.2225Z" fill="white"/>
</svg>
