<svg width="449" height="227" viewBox="0 0 449 227" fill="none" xmlns="http://www.w3.org/2000/svg">
<mask id="path-1-outside-1_5_336" maskUnits="userSpaceOnUse" x="0" y="0" width="449" height="227" fill="black">
<rect fill="white" width="449" height="227"/>
<path d="M15.5 8.39999H74.3L214.7 219H155.6L15.5 8.39999ZM121.1 139.2L74.3 219H17L92.3 99.9L121.1 139.2ZM107.9 88.2L154.4 8.39999H211.7L136.7 127.5L107.9 88.2ZM383.867 8.39999H437.567L362.867 219H299.567L224.567 8.39999H278.867L331.367 168L383.867 8.39999Z"/>
</mask>
<path d="M15.5 8.39999V0.399993H0.569576L8.83922 12.831L15.5 8.39999ZM74.3 8.39999L80.9564 3.96239L78.5815 0.399993H74.3V8.39999ZM214.7 219V227H229.648L221.356 214.562L214.7 219ZM155.6 219L148.939 223.431L151.313 227H155.6V219ZM121.1 139.2L128.001 143.247L130.661 138.712L127.553 134.471L121.1 139.2ZM74.3 219V227H78.8826L81.2008 223.047L74.3 219ZM17 219L10.2381 214.725L2.47725 227H17V219ZM92.3 99.9L98.7528 95.1712L91.8126 85.7007L85.5381 95.6248L92.3 99.9ZM107.9 88.2L100.988 84.1723L98.349 88.701L101.447 92.9288L107.9 88.2ZM154.4 8.39999V0.399993H149.803L147.488 4.37226L154.4 8.39999ZM211.7 8.39999L218.47 12.663L226.192 0.399993H211.7V8.39999ZM136.7 127.5L130.247 132.229L137.201 141.718L143.47 131.763L136.7 127.5ZM15.5 8.39999V16.4H74.3V8.39999V0.399993H15.5V8.39999ZM74.3 8.39999L67.6436 12.8376L208.044 223.438L214.7 219L221.356 214.562L80.9564 3.96239L74.3 8.39999ZM214.7 219V211H155.6V219V227H214.7V219ZM155.6 219L162.261 214.569L22.1608 3.96896L15.5 8.39999L8.83922 12.831L148.939 223.431L155.6 219ZM121.1 139.2L114.199 135.153L67.3992 214.953L74.3 219L81.2008 223.047L128.001 143.247L121.1 139.2ZM74.3 219V211H17V219V227H74.3V219ZM17 219L23.7619 223.275L99.0619 104.175L92.3 99.9L85.5381 95.6248L10.2381 214.725L17 219ZM92.3 99.9L85.8472 104.629L114.647 143.929L121.1 139.2L127.553 134.471L98.7528 95.1712L92.3 99.9ZM107.9 88.2L114.812 92.2277L161.312 12.4277L154.4 8.39999L147.488 4.37226L100.988 84.1723L107.9 88.2ZM154.4 8.39999V16.4H211.7V8.39999V0.399993H154.4V8.39999ZM211.7 8.39999L204.93 4.13704L129.93 123.237L136.7 127.5L143.47 131.763L218.47 12.663L211.7 8.39999ZM136.7 127.5L143.153 122.771L114.353 83.4712L107.9 88.2L101.447 92.9288L130.247 132.229L136.7 127.5ZM383.867 8.39999V0.399993H378.077L376.268 5.90019L383.867 8.39999ZM437.567 8.39999L445.107 11.0743L448.893 0.399993H437.567V8.39999ZM362.867 219V227H368.518L370.407 221.674L362.867 219ZM299.567 219L292.031 221.684L293.924 227H299.567V219ZM224.567 8.39999V0.399993H213.226L217.031 11.0839L224.567 8.39999ZM278.867 8.39999L286.467 5.90019L284.657 0.399993H278.867V8.39999ZM331.367 168L323.768 170.5L331.367 193.602L338.967 170.5L331.367 168ZM383.867 8.39999V16.4H437.567V8.39999V0.399993H383.867V8.39999ZM437.567 8.39999L430.027 5.72564L355.327 216.326L362.867 219L370.407 221.674L445.107 11.0743L437.567 8.39999ZM362.867 219V211H299.567V219V227H362.867V219ZM299.567 219L307.104 216.316L232.104 5.7161L224.567 8.39999L217.031 11.0839L292.031 221.684L299.567 219ZM224.567 8.39999V16.4H278.867V8.39999V0.399993H224.567V8.39999ZM278.867 8.39999L271.268 10.8998L323.768 170.5L331.367 168L338.967 165.5L286.467 5.90019L278.867 8.39999ZM331.367 168L338.967 170.5L391.467 10.8998L383.867 8.39999L376.268 5.90019L323.768 165.5L331.367 168Z" fill="white" mask="url(#path-1-outside-1_5_336)"/>
</svg>
