<svg width="45" height="46" viewBox="0 0 45 46" fill="none" xmlns="http://www.w3.org/2000/svg">
<path fill-rule="evenodd" clip-rule="evenodd" d="M35.5973 32.5303C35.055 34.0652 32.8995 35.3351 31.1805 35.7064C30.0038 35.9562 28.4692 36.1539 23.2987 34.0112C17.4915 31.6053 9.42751 23.035 9.42751 17.3318C9.42751 14.4284 11.1015 11.0476 14.0288 11.0476C15.4373 11.0476 15.7478 11.0751 16.2113 12.1869C16.7535 13.4968 18.0765 16.7241 18.234 17.0549C18.8843 18.4121 17.5725 19.2066 16.6207 20.3882C16.317 20.7438 15.9728 21.1284 16.3575 21.79C16.74 22.4382 18.063 24.5944 20.007 26.3252C22.518 28.5624 24.5542 29.2766 25.2832 29.5804C25.8255 29.8055 26.4735 29.7531 26.8695 29.33C27.3713 28.7875 27.9945 27.8876 28.629 27.0009C29.0767 26.3662 29.646 26.2869 30.2423 26.512C30.645 26.6515 35.7637 29.0287 35.9797 29.4091C36.1395 29.6859 36.1395 30.9953 35.5973 32.5303ZM22.5045 0.757812H22.4932C10.089 0.757812 0 10.8499 0 23.2578C0 28.1778 1.58627 32.7423 4.28402 36.4447L1.48051 44.8053L10.1273 42.0422C13.6845 44.3965 17.9302 45.7578 22.5045 45.7578C34.9087 45.7578 45 35.6658 45 23.2578C45 10.8499 34.9087 0.757812 22.5045 0.757812Z" fill="white"/>
</svg>
